<svg width="32" height="32" viewBox="0 0 32 32" fill="none" xmlns="http://www.w3.org/2000/svg">
<rect width="32" height="32" fill="#1E1E1E"/>
<g id="Group 6">
<g id="Group 5">
<g id="Group 3">
<g id="Group 2">
<g id="Group 1">
<g id="Home">
<rect width="1366" height="720" transform="translate(-64 -640)" fill="white"/>
<g id="Footer">
<g id="Frame 1">
<g id="FacebookLogo">
<path id="Vector" d="M16 28C22.6274 28 28 22.6274 28 16C28 9.37258 22.6274 4 16 4C9.37258 4 4 9.37258 4 16C4 22.6274 9.37258 28 16 28Z" stroke="#018762" stroke-width="2" stroke-linecap="round" stroke-linejoin="round"/>
<path id="Vector_2" d="M21 11H19C18.6056 10.9983 18.2147 11.0748 17.85 11.225C17.4853 11.3752 17.1539 11.5961 16.875 11.875C16.5961 12.1539 16.3752 12.4853 16.225 12.85C16.0748 13.2147 15.9984 13.6056 16 14V28" stroke="#018762" stroke-width="2" stroke-linecap="round" stroke-linejoin="round"/>
<path id="Vector_3" d="M12 18H20" stroke="#018762" stroke-width="2" stroke-linecap="round" stroke-linejoin="round"/>
</g>
</g>
</g>
</g>
</g>
</g>
</g>
<g id="Group 4">
<g id="Group 2_2">
<g id="Group 1_2">
<g id="Home_2">
<rect width="1366" height="720" transform="translate(-64 -640)" fill="white"/>
<g id="Footer_2">
<g id="Frame 1_2">
<g id="FacebookLogo_2">
<path id="Vector_4" d="M16 28C22.6274 28 28 22.6274 28 16C28 9.37258 22.6274 4 16 4C9.37258 4 4 9.37258 4 16C4 22.6274 9.37258 28 16 28Z" stroke="#018762" stroke-width="2" stroke-linecap="round" stroke-linejoin="round"/>
<path id="Vector_5" d="M21 11H19C18.6056 10.9983 18.2147 11.0748 17.85 11.225C17.4853 11.3752 17.1539 11.5961 16.875 11.875C16.5961 12.1539 16.3752 12.4853 16.225 12.85C16.0748 13.2147 15.9984 13.6056 16 14V28" stroke="#018762" stroke-width="2" stroke-linecap="round" stroke-linejoin="round"/>
<path id="Vector_6" d="M12 18H20" stroke="#018762" stroke-width="2" stroke-linecap="round" stroke-linejoin="round"/>
</g>
</g>
</g>
</g>
</g>
</g>
</g>
</g>
</g>
</svg>
