<svg width="32" height="32" viewBox="0 0 32 32" fill="none" xmlns="http://www.w3.org/2000/svg">
<rect width="32" height="32" fill="#1E1E1E"/>
<g id="Group 6">
<g id="Group 5">
<g id="Group 3">
<g id="Group 2">
<g id="Group 1">
<g id="Home">
<rect width="1366" height="720" transform="translate(-128 -640)" fill="white"/>
<g id="Footer">
<g id="Frame 1">
<g id="InstagramLogo">
<path id="Vector" d="M16 21C18.7614 21 21 18.7614 21 16C21 13.2386 18.7614 11 16 11C13.2386 11 11 13.2386 11 16C11 18.7614 13.2386 21 16 21Z" stroke="#018762" stroke-width="2" stroke-miterlimit="10"/>
<path id="Vector_2" d="M21.5 4.5H10.5C7.18629 4.5 4.5 7.18629 4.5 10.5V21.5C4.5 24.8137 7.18629 27.5 10.5 27.5H21.5C24.8137 27.5 27.5 24.8137 27.5 21.5V10.5C27.5 7.18629 24.8137 4.5 21.5 4.5Z" stroke="#018762" stroke-width="2" stroke-linecap="round" stroke-linejoin="round"/>
<path id="Vector_3" d="M22.5 11C23.3284 11 24 10.3284 24 9.5C24 8.67157 23.3284 8 22.5 8C21.6716 8 21 8.67157 21 9.5C21 10.3284 21.6716 11 22.5 11Z" fill="#018762"/>
</g>
</g>
</g>
</g>
</g>
</g>
</g>
<g id="Group 4">
<g id="Group 2_2">
<g id="Group 1_2">
<g id="Home_2">
<rect width="1366" height="720" transform="translate(-128 -640)" fill="white"/>
<g id="Footer_2">
<g id="Frame 1_2">
<g id="InstagramLogo_2">
<path id="Vector_4" d="M16 21C18.7614 21 21 18.7614 21 16C21 13.2386 18.7614 11 16 11C13.2386 11 11 13.2386 11 16C11 18.7614 13.2386 21 16 21Z" stroke="#018762" stroke-width="2" stroke-miterlimit="10"/>
<path id="Vector_5" d="M21.5 4.5H10.5C7.18629 4.5 4.5 7.18629 4.5 10.5V21.5C4.5 24.8137 7.18629 27.5 10.5 27.5H21.5C24.8137 27.5 27.5 24.8137 27.5 21.5V10.5C27.5 7.18629 24.8137 4.5 21.5 4.5Z" stroke="#018762" stroke-width="2" stroke-linecap="round" stroke-linejoin="round"/>
<path id="Vector_6" d="M22.5 11C23.3284 11 24 10.3284 24 9.5C24 8.67157 23.3284 8 22.5 8C21.6716 8 21 8.67157 21 9.5C21 10.3284 21.6716 11 22.5 11Z" fill="#018762"/>
</g>
</g>
</g>
</g>
</g>
</g>
</g>
</g>
</g>
</svg>
